<mxfile host="app.diagrams.net" agent="Mozilla/5.0 (Macintosh; Intel Mac OS X 10_15_7) AppleWebKit/537.36 (KHTML, like Gecko) Chrome/135.0.0.0 Safari/537.36" version="27.0.2">
  <diagram id="VEhEPB7W-UyzYl13kEZD" name="第 5 页">
    <mxGraphModel dx="4174" dy="1046" grid="1" gridSize="10" guides="1" tooltips="1" connect="1" arrows="1" fold="1" page="1" pageScale="1" pageWidth="827" pageHeight="1169" math="0" shadow="0">
      <root>
        <mxCell id="0" />
        <mxCell id="1" parent="0" />
        <mxCell id="F8ehT1ZcIRryyy1ax7xc-109" value="" style="edgeStyle=orthogonalEdgeStyle;rounded=0;orthogonalLoop=1;jettySize=auto;html=1;exitX=0.5;exitY=1;exitDx=0;exitDy=0;" parent="1" source="F8ehT1ZcIRryyy1ax7xc-99" target="F8ehT1ZcIRryyy1ax7xc-108" edge="1">
          <mxGeometry x="0.6471" relative="1" as="geometry">
            <mxPoint x="-1570" y="679.9999999999998" as="sourcePoint" />
            <mxPoint as="offset" />
          </mxGeometry>
        </mxCell>
        <mxCell id="F8ehT1ZcIRryyy1ax7xc-97" style="edgeStyle=orthogonalEdgeStyle;rounded=0;orthogonalLoop=1;jettySize=auto;html=1;exitX=0.5;exitY=1;exitDx=0;exitDy=0;entryX=0.5;entryY=0;entryDx=0;entryDy=0;" parent="1" source="F8ehT1ZcIRryyy1ax7xc-6" target="F8ehT1ZcIRryyy1ax7xc-23" edge="1">
          <mxGeometry relative="1" as="geometry" />
        </mxCell>
        <mxCell id="F8ehT1ZcIRryyy1ax7xc-103" style="edgeStyle=orthogonalEdgeStyle;rounded=0;orthogonalLoop=1;jettySize=auto;html=1;exitX=1;exitY=0.5;exitDx=0;exitDy=0;entryX=0;entryY=0.5;entryDx=0;entryDy=0;" parent="1" source="F8ehT1ZcIRryyy1ax7xc-6" target="F8ehT1ZcIRryyy1ax7xc-98" edge="1">
          <mxGeometry relative="1" as="geometry" />
        </mxCell>
        <mxCell id="F8ehT1ZcIRryyy1ax7xc-6" value="食材/碗盤 生成" style="rounded=0;whiteSpace=wrap;html=1;" parent="1" vertex="1">
          <mxGeometry x="-1820" y="380" width="120" height="60" as="geometry" />
        </mxCell>
        <mxCell id="nhGvkrNBYma2P62wXq5q-2" style="edgeStyle=orthogonalEdgeStyle;rounded=0;orthogonalLoop=1;jettySize=auto;html=1;exitX=0.5;exitY=1;exitDx=0;exitDy=0;" edge="1" parent="1" source="F8ehT1ZcIRryyy1ax7xc-23" target="nhGvkrNBYma2P62wXq5q-1">
          <mxGeometry relative="1" as="geometry" />
        </mxCell>
        <mxCell id="F8ehT1ZcIRryyy1ax7xc-23" value="在指定物件&lt;div&gt;上隨機生成&lt;/div&gt;" style="rounded=0;whiteSpace=wrap;html=1;" parent="1" vertex="1">
          <mxGeometry x="-1820" y="510" width="120" height="60" as="geometry" />
        </mxCell>
        <mxCell id="F8ehT1ZcIRryyy1ax7xc-67" style="edgeStyle=orthogonalEdgeStyle;rounded=0;orthogonalLoop=1;jettySize=auto;html=1;exitX=0.5;exitY=1;exitDx=0;exitDy=0;" parent="1" source="F8ehT1ZcIRryyy1ax7xc-25" target="F8ehT1ZcIRryyy1ax7xc-43" edge="1">
          <mxGeometry relative="1" as="geometry" />
        </mxCell>
        <mxCell id="F8ehT1ZcIRryyy1ax7xc-69" style="edgeStyle=orthogonalEdgeStyle;rounded=0;orthogonalLoop=1;jettySize=auto;html=1;exitX=0.5;exitY=1;exitDx=0;exitDy=0;" parent="1" source="F8ehT1ZcIRryyy1ax7xc-25" target="F8ehT1ZcIRryyy1ax7xc-32" edge="1">
          <mxGeometry relative="1" as="geometry" />
        </mxCell>
        <mxCell id="F8ehT1ZcIRryyy1ax7xc-78" style="edgeStyle=orthogonalEdgeStyle;rounded=0;orthogonalLoop=1;jettySize=auto;html=1;exitX=0.5;exitY=1;exitDx=0;exitDy=0;" parent="1" source="F8ehT1ZcIRryyy1ax7xc-25" target="F8ehT1ZcIRryyy1ax7xc-42" edge="1">
          <mxGeometry relative="1" as="geometry" />
        </mxCell>
        <mxCell id="F8ehT1ZcIRryyy1ax7xc-81" style="edgeStyle=orthogonalEdgeStyle;rounded=0;orthogonalLoop=1;jettySize=auto;html=1;exitX=0.5;exitY=1;exitDx=0;exitDy=0;entryX=0.5;entryY=0;entryDx=0;entryDy=0;" parent="1" source="F8ehT1ZcIRryyy1ax7xc-25" target="F8ehT1ZcIRryyy1ax7xc-80" edge="1">
          <mxGeometry relative="1" as="geometry" />
        </mxCell>
        <mxCell id="F8ehT1ZcIRryyy1ax7xc-116" style="edgeStyle=orthogonalEdgeStyle;rounded=0;orthogonalLoop=1;jettySize=auto;html=1;exitX=1;exitY=0.5;exitDx=0;exitDy=0;entryX=0;entryY=0.5;entryDx=0;entryDy=0;" parent="1" source="F8ehT1ZcIRryyy1ax7xc-25" target="F8ehT1ZcIRryyy1ax7xc-115" edge="1">
          <mxGeometry relative="1" as="geometry" />
        </mxCell>
        <mxCell id="F8ehT1ZcIRryyy1ax7xc-25" value="料理動作" style="rounded=0;whiteSpace=wrap;html=1;" parent="1" vertex="1">
          <mxGeometry x="-850" y="380" width="120" height="60" as="geometry" />
        </mxCell>
        <mxCell id="F8ehT1ZcIRryyy1ax7xc-56" style="edgeStyle=orthogonalEdgeStyle;rounded=0;orthogonalLoop=1;jettySize=auto;html=1;exitX=0.5;exitY=1;exitDx=0;exitDy=0;entryX=0.5;entryY=0;entryDx=0;entryDy=0;" parent="1" source="F8ehT1ZcIRryyy1ax7xc-26" target="F8ehT1ZcIRryyy1ax7xc-27" edge="1">
          <mxGeometry relative="1" as="geometry" />
        </mxCell>
        <mxCell id="F8ehT1ZcIRryyy1ax7xc-125" style="edgeStyle=orthogonalEdgeStyle;rounded=0;orthogonalLoop=1;jettySize=auto;html=1;exitX=0.5;exitY=0;exitDx=0;exitDy=0;entryX=0.5;entryY=0;entryDx=0;entryDy=0;" parent="1" source="F8ehT1ZcIRryyy1ax7xc-26" target="F8ehT1ZcIRryyy1ax7xc-6" edge="1">
          <mxGeometry relative="1" as="geometry">
            <Array as="points">
              <mxPoint x="300" y="350" />
              <mxPoint x="-1760" y="350" />
            </Array>
          </mxGeometry>
        </mxCell>
        <mxCell id="F8ehT1ZcIRryyy1ax7xc-26" value="洗碗" style="rounded=0;whiteSpace=wrap;html=1;" parent="1" vertex="1">
          <mxGeometry x="240" y="380" width="120" height="60" as="geometry" />
        </mxCell>
        <mxCell id="F8ehT1ZcIRryyy1ax7xc-58" style="edgeStyle=orthogonalEdgeStyle;rounded=0;orthogonalLoop=1;jettySize=auto;html=1;exitX=0.5;exitY=1;exitDx=0;exitDy=0;entryX=0.5;entryY=0;entryDx=0;entryDy=0;" parent="1" source="F8ehT1ZcIRryyy1ax7xc-27" target="F8ehT1ZcIRryyy1ax7xc-57" edge="1">
          <mxGeometry relative="1" as="geometry" />
        </mxCell>
        <mxCell id="F8ehT1ZcIRryyy1ax7xc-27" value="從指定訂單桌上&lt;div&gt;拿髒碗盤&lt;/div&gt;" style="rounded=0;whiteSpace=wrap;html=1;" parent="1" vertex="1">
          <mxGeometry x="240" y="490" width="120" height="60" as="geometry" />
        </mxCell>
        <mxCell id="F8ehT1ZcIRryyy1ax7xc-63" style="edgeStyle=orthogonalEdgeStyle;rounded=0;orthogonalLoop=1;jettySize=auto;html=1;exitX=0.5;exitY=1;exitDx=0;exitDy=0;" parent="1" source="F8ehT1ZcIRryyy1ax7xc-32" target="F8ehT1ZcIRryyy1ax7xc-39" edge="1">
          <mxGeometry relative="1" as="geometry" />
        </mxCell>
        <mxCell id="F8ehT1ZcIRryyy1ax7xc-64" style="edgeStyle=orthogonalEdgeStyle;rounded=0;orthogonalLoop=1;jettySize=auto;html=1;exitX=0.5;exitY=1;exitDx=0;exitDy=0;" parent="1" source="F8ehT1ZcIRryyy1ax7xc-32" target="F8ehT1ZcIRryyy1ax7xc-33" edge="1">
          <mxGeometry relative="1" as="geometry" />
        </mxCell>
        <mxCell id="F8ehT1ZcIRryyy1ax7xc-32" value="煮火鍋" style="rounded=0;whiteSpace=wrap;html=1;" parent="1" vertex="1">
          <mxGeometry x="-1020" y="510" width="120" height="60" as="geometry" />
        </mxCell>
        <mxCell id="F8ehT1ZcIRryyy1ax7xc-135" style="edgeStyle=orthogonalEdgeStyle;rounded=0;orthogonalLoop=1;jettySize=auto;html=1;exitX=0.5;exitY=1;exitDx=0;exitDy=0;" parent="1" source="F8ehT1ZcIRryyy1ax7xc-33" target="F8ehT1ZcIRryyy1ax7xc-38" edge="1">
          <mxGeometry relative="1" as="geometry" />
        </mxCell>
        <mxCell id="F8ehT1ZcIRryyy1ax7xc-33" value="打開瓦斯爐" style="rounded=0;whiteSpace=wrap;html=1;" parent="1" vertex="1">
          <mxGeometry x="-940" y="620" width="120" height="60" as="geometry" />
        </mxCell>
        <mxCell id="F8ehT1ZcIRryyy1ax7xc-90" style="edgeStyle=orthogonalEdgeStyle;rounded=0;orthogonalLoop=1;jettySize=auto;html=1;exitX=0.5;exitY=1;exitDx=0;exitDy=0;entryX=0.5;entryY=0;entryDx=0;entryDy=0;" parent="1" source="F8ehT1ZcIRryyy1ax7xc-38" target="F8ehT1ZcIRryyy1ax7xc-89" edge="1">
          <mxGeometry relative="1" as="geometry" />
        </mxCell>
        <mxCell id="F8ehT1ZcIRryyy1ax7xc-38" value="攪拌" style="rounded=0;whiteSpace=wrap;html=1;" parent="1" vertex="1">
          <mxGeometry x="-940" y="870" width="120" height="60" as="geometry" />
        </mxCell>
        <mxCell id="F8ehT1ZcIRryyy1ax7xc-39" value="火鍋在瓦斯爐上" style="rounded=0;whiteSpace=wrap;html=1;" parent="1" vertex="1">
          <mxGeometry x="-1097" y="620" width="120" height="60" as="geometry" />
        </mxCell>
        <mxCell id="F8ehT1ZcIRryyy1ax7xc-73" style="edgeStyle=orthogonalEdgeStyle;rounded=0;orthogonalLoop=1;jettySize=auto;html=1;exitX=0.5;exitY=1;exitDx=0;exitDy=0;" parent="1" source="F8ehT1ZcIRryyy1ax7xc-42" target="F8ehT1ZcIRryyy1ax7xc-72" edge="1">
          <mxGeometry relative="1" as="geometry" />
        </mxCell>
        <mxCell id="F8ehT1ZcIRryyy1ax7xc-42" value="倒掉料理" style="rounded=0;whiteSpace=wrap;html=1;" parent="1" vertex="1">
          <mxGeometry x="-420" y="510" width="120" height="60" as="geometry" />
        </mxCell>
        <mxCell id="F8ehT1ZcIRryyy1ax7xc-53" style="edgeStyle=orthogonalEdgeStyle;rounded=0;orthogonalLoop=1;jettySize=auto;html=1;exitX=0.5;exitY=1;exitDx=0;exitDy=0;" parent="1" source="F8ehT1ZcIRryyy1ax7xc-43" target="F8ehT1ZcIRryyy1ax7xc-52" edge="1">
          <mxGeometry relative="1" as="geometry" />
        </mxCell>
        <mxCell id="F8ehT1ZcIRryyy1ax7xc-43" value="切菜" style="rounded=0;whiteSpace=wrap;html=1;" parent="1" vertex="1">
          <mxGeometry x="-1280" y="510" width="120" height="60" as="geometry" />
        </mxCell>
        <mxCell id="F8ehT1ZcIRryyy1ax7xc-55" style="edgeStyle=orthogonalEdgeStyle;rounded=0;orthogonalLoop=1;jettySize=auto;html=1;exitX=0.5;exitY=1;exitDx=0;exitDy=0;" parent="1" source="F8ehT1ZcIRryyy1ax7xc-46" target="F8ehT1ZcIRryyy1ax7xc-51" edge="1">
          <mxGeometry relative="1" as="geometry" />
        </mxCell>
        <mxCell id="F8ehT1ZcIRryyy1ax7xc-46" value="切的&lt;div&gt;次數&lt;/div&gt;&lt;div&gt;符合&lt;/div&gt;" style="rhombus;whiteSpace=wrap;html=1;" parent="1" vertex="1">
          <mxGeometry x="-1260" y="750" width="80" height="80" as="geometry" />
        </mxCell>
        <mxCell id="F8ehT1ZcIRryyy1ax7xc-51" value="切好的 mesh" style="rounded=0;whiteSpace=wrap;html=1;" parent="1" vertex="1">
          <mxGeometry x="-1280" y="880" width="120" height="60" as="geometry" />
        </mxCell>
        <mxCell id="F8ehT1ZcIRryyy1ax7xc-54" style="edgeStyle=orthogonalEdgeStyle;rounded=0;orthogonalLoop=1;jettySize=auto;html=1;exitX=0.5;exitY=1;exitDx=0;exitDy=0;entryX=0.5;entryY=0;entryDx=0;entryDy=0;" parent="1" source="F8ehT1ZcIRryyy1ax7xc-52" target="F8ehT1ZcIRryyy1ax7xc-46" edge="1">
          <mxGeometry relative="1" as="geometry" />
        </mxCell>
        <mxCell id="F8ehT1ZcIRryyy1ax7xc-52" value="原始 mesh" style="rounded=0;whiteSpace=wrap;html=1;" parent="1" vertex="1">
          <mxGeometry x="-1280" y="620" width="120" height="60" as="geometry" />
        </mxCell>
        <mxCell id="F8ehT1ZcIRryyy1ax7xc-60" style="edgeStyle=orthogonalEdgeStyle;rounded=0;orthogonalLoop=1;jettySize=auto;html=1;exitX=0.5;exitY=1;exitDx=0;exitDy=0;entryX=0.5;entryY=0;entryDx=0;entryDy=0;" parent="1" source="F8ehT1ZcIRryyy1ax7xc-57" target="F8ehT1ZcIRryyy1ax7xc-59" edge="1">
          <mxGeometry relative="1" as="geometry" />
        </mxCell>
        <mxCell id="F8ehT1ZcIRryyy1ax7xc-57" value="放到洗碗槽" style="rounded=0;whiteSpace=wrap;html=1;" parent="1" vertex="1">
          <mxGeometry x="240" y="630" width="120" height="60" as="geometry" />
        </mxCell>
        <mxCell id="F8ehT1ZcIRryyy1ax7xc-62" style="edgeStyle=orthogonalEdgeStyle;rounded=0;orthogonalLoop=1;jettySize=auto;html=1;exitX=0.5;exitY=1;exitDx=0;exitDy=0;entryX=0.5;entryY=0;entryDx=0;entryDy=0;" parent="1" source="F8ehT1ZcIRryyy1ax7xc-59" target="F8ehT1ZcIRryyy1ax7xc-61" edge="1">
          <mxGeometry relative="1" as="geometry" />
        </mxCell>
        <mxCell id="F8ehT1ZcIRryyy1ax7xc-59" value="洗的&lt;div&gt;次數&lt;/div&gt;&lt;div&gt;符合&lt;/div&gt;" style="rhombus;whiteSpace=wrap;html=1;" parent="1" vertex="1">
          <mxGeometry x="260" y="740" width="80" height="80" as="geometry" />
        </mxCell>
        <mxCell id="F8ehT1ZcIRryyy1ax7xc-61" value="乾淨盤子的 mesh" style="rounded=0;whiteSpace=wrap;html=1;" parent="1" vertex="1">
          <mxGeometry x="240" y="870" width="120" height="60" as="geometry" />
        </mxCell>
        <mxCell id="F8ehT1ZcIRryyy1ax7xc-75" style="edgeStyle=orthogonalEdgeStyle;rounded=0;orthogonalLoop=1;jettySize=auto;html=1;exitX=0.5;exitY=1;exitDx=0;exitDy=0;entryX=0.5;entryY=0;entryDx=0;entryDy=0;" parent="1" source="F8ehT1ZcIRryyy1ax7xc-72" target="F8ehT1ZcIRryyy1ax7xc-74" edge="1">
          <mxGeometry relative="1" as="geometry" />
        </mxCell>
        <mxCell id="F8ehT1ZcIRryyy1ax7xc-72" value="翻轉 平底鍋/鍋子" style="rounded=0;whiteSpace=wrap;html=1;" parent="1" vertex="1">
          <mxGeometry x="-420" y="640" width="120" height="60" as="geometry" />
        </mxCell>
        <mxCell id="F8ehT1ZcIRryyy1ax7xc-77" style="edgeStyle=orthogonalEdgeStyle;rounded=0;orthogonalLoop=1;jettySize=auto;html=1;exitX=0.5;exitY=1;exitDx=0;exitDy=0;" parent="1" source="F8ehT1ZcIRryyy1ax7xc-74" target="F8ehT1ZcIRryyy1ax7xc-76" edge="1">
          <mxGeometry relative="1" as="geometry" />
        </mxCell>
        <mxCell id="F8ehT1ZcIRryyy1ax7xc-74" value="食材碰到&lt;div&gt;垃圾桶&lt;/div&gt;" style="rhombus;whiteSpace=wrap;html=1;" parent="1" vertex="1">
          <mxGeometry x="-400" y="750" width="80" height="80" as="geometry" />
        </mxCell>
        <mxCell id="F8ehT1ZcIRryyy1ax7xc-76" value="平底鍋/鍋子&lt;div&gt;裡的食材消失&lt;/div&gt;" style="rounded=0;whiteSpace=wrap;html=1;" parent="1" vertex="1">
          <mxGeometry x="-420" y="880" width="120" height="60" as="geometry" />
        </mxCell>
        <mxCell id="F8ehT1ZcIRryyy1ax7xc-84" style="edgeStyle=orthogonalEdgeStyle;rounded=0;orthogonalLoop=1;jettySize=auto;html=1;exitX=0.5;exitY=1;exitDx=0;exitDy=0;entryX=0.5;entryY=0;entryDx=0;entryDy=0;" parent="1" source="F8ehT1ZcIRryyy1ax7xc-80" target="F8ehT1ZcIRryyy1ax7xc-83" edge="1">
          <mxGeometry relative="1" as="geometry" />
        </mxCell>
        <mxCell id="F8ehT1ZcIRryyy1ax7xc-85" style="edgeStyle=orthogonalEdgeStyle;rounded=0;orthogonalLoop=1;jettySize=auto;html=1;exitX=0.5;exitY=1;exitDx=0;exitDy=0;entryX=0.5;entryY=0;entryDx=0;entryDy=0;" parent="1" source="F8ehT1ZcIRryyy1ax7xc-80" target="F8ehT1ZcIRryyy1ax7xc-82" edge="1">
          <mxGeometry relative="1" as="geometry" />
        </mxCell>
        <mxCell id="F8ehT1ZcIRryyy1ax7xc-80" value="炒平底鍋" style="rounded=0;whiteSpace=wrap;html=1;" parent="1" vertex="1">
          <mxGeometry x="-690" y="510" width="120" height="60" as="geometry" />
        </mxCell>
        <mxCell id="F8ehT1ZcIRryyy1ax7xc-133" style="edgeStyle=orthogonalEdgeStyle;rounded=0;orthogonalLoop=1;jettySize=auto;html=1;exitX=0.5;exitY=1;exitDx=0;exitDy=0;" parent="1" source="F8ehT1ZcIRryyy1ax7xc-82" target="F8ehT1ZcIRryyy1ax7xc-86" edge="1">
          <mxGeometry relative="1" as="geometry" />
        </mxCell>
        <mxCell id="F8ehT1ZcIRryyy1ax7xc-82" value="打開瓦斯爐" style="rounded=0;whiteSpace=wrap;html=1;" parent="1" vertex="1">
          <mxGeometry x="-610" y="620" width="120" height="60" as="geometry" />
        </mxCell>
        <mxCell id="F8ehT1ZcIRryyy1ax7xc-130" style="edgeStyle=orthogonalEdgeStyle;rounded=0;orthogonalLoop=1;jettySize=auto;html=1;exitX=0.5;exitY=1;exitDx=0;exitDy=0;" parent="1" source="F8ehT1ZcIRryyy1ax7xc-83" target="F8ehT1ZcIRryyy1ax7xc-126" edge="1">
          <mxGeometry relative="1" as="geometry" />
        </mxCell>
        <mxCell id="F8ehT1ZcIRryyy1ax7xc-83" value="平底鍋在瓦斯爐上" style="rounded=0;whiteSpace=wrap;html=1;" parent="1" vertex="1">
          <mxGeometry x="-770" y="620" width="120" height="60" as="geometry" />
        </mxCell>
        <mxCell id="F8ehT1ZcIRryyy1ax7xc-92" style="edgeStyle=orthogonalEdgeStyle;rounded=0;orthogonalLoop=1;jettySize=auto;html=1;exitX=0.5;exitY=1;exitDx=0;exitDy=0;entryX=0.5;entryY=0;entryDx=0;entryDy=0;" parent="1" source="F8ehT1ZcIRryyy1ax7xc-86" target="F8ehT1ZcIRryyy1ax7xc-91" edge="1">
          <mxGeometry relative="1" as="geometry" />
        </mxCell>
        <mxCell id="F8ehT1ZcIRryyy1ax7xc-86" value="炒菜" style="rounded=0;whiteSpace=wrap;html=1;" parent="1" vertex="1">
          <mxGeometry x="-610" y="870" width="120" height="60" as="geometry" />
        </mxCell>
        <mxCell id="F8ehT1ZcIRryyy1ax7xc-94" style="edgeStyle=orthogonalEdgeStyle;rounded=0;orthogonalLoop=1;jettySize=auto;html=1;exitX=0.5;exitY=1;exitDx=0;exitDy=0;entryX=0.5;entryY=0;entryDx=0;entryDy=0;" parent="1" source="F8ehT1ZcIRryyy1ax7xc-89" target="F8ehT1ZcIRryyy1ax7xc-93" edge="1">
          <mxGeometry relative="1" as="geometry" />
        </mxCell>
        <mxCell id="F8ehT1ZcIRryyy1ax7xc-89" value="攪拌的&lt;div&gt;時間到&lt;/div&gt;" style="rhombus;whiteSpace=wrap;html=1;" parent="1" vertex="1">
          <mxGeometry x="-920" y="990" width="80" height="80" as="geometry" />
        </mxCell>
        <mxCell id="F8ehT1ZcIRryyy1ax7xc-96" style="edgeStyle=orthogonalEdgeStyle;rounded=0;orthogonalLoop=1;jettySize=auto;html=1;exitX=0.5;exitY=1;exitDx=0;exitDy=0;entryX=0.5;entryY=0;entryDx=0;entryDy=0;" parent="1" source="F8ehT1ZcIRryyy1ax7xc-91" target="F8ehT1ZcIRryyy1ax7xc-95" edge="1">
          <mxGeometry relative="1" as="geometry" />
        </mxCell>
        <mxCell id="F8ehT1ZcIRryyy1ax7xc-91" value="攪拌的&lt;div&gt;時間到&lt;/div&gt;" style="rhombus;whiteSpace=wrap;html=1;" parent="1" vertex="1">
          <mxGeometry x="-590" y="980" width="80" height="80" as="geometry" />
        </mxCell>
        <mxCell id="F8ehT1ZcIRryyy1ax7xc-93" value="火鍋煮好的 mesh" style="rounded=0;whiteSpace=wrap;html=1;" parent="1" vertex="1">
          <mxGeometry x="-940" y="1120" width="120" height="60" as="geometry" />
        </mxCell>
        <mxCell id="F8ehT1ZcIRryyy1ax7xc-95" value="炒好菜的 mesh" style="rounded=0;whiteSpace=wrap;html=1;" parent="1" vertex="1">
          <mxGeometry x="-610" y="1120" width="120" height="60" as="geometry" />
        </mxCell>
        <mxCell id="F8ehT1ZcIRryyy1ax7xc-100" style="edgeStyle=orthogonalEdgeStyle;rounded=0;orthogonalLoop=1;jettySize=auto;html=1;exitX=0.5;exitY=1;exitDx=0;exitDy=0;" parent="1" source="F8ehT1ZcIRryyy1ax7xc-98" target="F8ehT1ZcIRryyy1ax7xc-99" edge="1">
          <mxGeometry relative="1" as="geometry" />
        </mxCell>
        <mxCell id="F8ehT1ZcIRryyy1ax7xc-102" style="edgeStyle=orthogonalEdgeStyle;rounded=0;orthogonalLoop=1;jettySize=auto;html=1;exitX=0.5;exitY=1;exitDx=0;exitDy=0;entryX=0.5;entryY=0;entryDx=0;entryDy=0;" parent="1" source="F8ehT1ZcIRryyy1ax7xc-98" target="F8ehT1ZcIRryyy1ax7xc-101" edge="1">
          <mxGeometry relative="1" as="geometry" />
        </mxCell>
        <mxCell id="F8ehT1ZcIRryyy1ax7xc-113" style="edgeStyle=orthogonalEdgeStyle;rounded=0;orthogonalLoop=1;jettySize=auto;html=1;exitX=1;exitY=0.5;exitDx=0;exitDy=0;entryX=0;entryY=0.5;entryDx=0;entryDy=0;" parent="1" source="F8ehT1ZcIRryyy1ax7xc-98" target="F8ehT1ZcIRryyy1ax7xc-25" edge="1">
          <mxGeometry relative="1" as="geometry" />
        </mxCell>
        <mxCell id="F8ehT1ZcIRryyy1ax7xc-150" style="edgeStyle=orthogonalEdgeStyle;rounded=0;orthogonalLoop=1;jettySize=auto;html=1;exitX=0.5;exitY=1;exitDx=0;exitDy=0;entryX=0;entryY=0.5;entryDx=0;entryDy=0;" parent="1" source="F8ehT1ZcIRryyy1ax7xc-98" target="F8ehT1ZcIRryyy1ax7xc-142" edge="1">
          <mxGeometry relative="1" as="geometry">
            <Array as="points">
              <mxPoint x="-1490" y="640" />
            </Array>
          </mxGeometry>
        </mxCell>
        <mxCell id="F8ehT1ZcIRryyy1ax7xc-98" value="訂單生成" style="rounded=0;whiteSpace=wrap;html=1;" parent="1" vertex="1">
          <mxGeometry x="-1550" y="380" width="120" height="60" as="geometry" />
        </mxCell>
        <mxCell id="F8ehT1ZcIRryyy1ax7xc-99" value="顧客掃碼點餐" style="rounded=0;whiteSpace=wrap;html=1;" parent="1" vertex="1">
          <mxGeometry x="-1630" y="510" width="120" height="60" as="geometry" />
        </mxCell>
        <mxCell id="F8ehT1ZcIRryyy1ax7xc-101" value="自動生成" style="rounded=0;whiteSpace=wrap;html=1;" parent="1" vertex="1">
          <mxGeometry x="-1470" y="510" width="120" height="60" as="geometry" />
        </mxCell>
        <mxCell id="F8ehT1ZcIRryyy1ax7xc-108" value="點餐系統" style="rounded=0;whiteSpace=wrap;html=1;" parent="1" vertex="1">
          <mxGeometry x="-1630" y="740" width="120" height="60" as="geometry" />
        </mxCell>
        <mxCell id="F8ehT1ZcIRryyy1ax7xc-111" style="edgeStyle=orthogonalEdgeStyle;rounded=0;orthogonalLoop=1;jettySize=auto;html=1;exitX=0.5;exitY=0;exitDx=0;exitDy=0;entryX=0.5;entryY=1;entryDx=0;entryDy=0;" parent="1" source="F8ehT1ZcIRryyy1ax7xc-110" target="F8ehT1ZcIRryyy1ax7xc-108" edge="1">
          <mxGeometry relative="1" as="geometry" />
        </mxCell>
        <mxCell id="F8ehT1ZcIRryyy1ax7xc-112" value="API" style="edgeLabel;html=1;align=center;verticalAlign=middle;resizable=0;points=[];" parent="F8ehT1ZcIRryyy1ax7xc-111" vertex="1" connectable="0">
          <mxGeometry x="-0.2292" y="2" relative="1" as="geometry">
            <mxPoint as="offset" />
          </mxGeometry>
        </mxCell>
        <mxCell id="F8ehT1ZcIRryyy1ax7xc-110" value="虛擬櫃檯螢幕&lt;div&gt;顯示&lt;span style=&quot;background-color: transparent; color: light-dark(rgb(0, 0, 0), rgb(255, 255, 255));&quot;&gt;訂單狀況&lt;/span&gt;&lt;/div&gt;" style="rounded=0;whiteSpace=wrap;html=1;" parent="1" vertex="1">
          <mxGeometry x="-1630" y="890" width="120" height="60" as="geometry" />
        </mxCell>
        <mxCell id="F8ehT1ZcIRryyy1ax7xc-118" style="edgeStyle=orthogonalEdgeStyle;rounded=0;orthogonalLoop=1;jettySize=auto;html=1;exitX=0.5;exitY=1;exitDx=0;exitDy=0;entryX=0.5;entryY=0;entryDx=0;entryDy=0;" parent="1" source="F8ehT1ZcIRryyy1ax7xc-115" target="F8ehT1ZcIRryyy1ax7xc-117" edge="1">
          <mxGeometry relative="1" as="geometry" />
        </mxCell>
        <mxCell id="F8ehT1ZcIRryyy1ax7xc-120" style="edgeStyle=orthogonalEdgeStyle;rounded=0;orthogonalLoop=1;jettySize=auto;html=1;exitX=1;exitY=0.5;exitDx=0;exitDy=0;entryX=0;entryY=0.5;entryDx=0;entryDy=0;" parent="1" source="F8ehT1ZcIRryyy1ax7xc-115" target="F8ehT1ZcIRryyy1ax7xc-119" edge="1">
          <mxGeometry relative="1" as="geometry" />
        </mxCell>
        <mxCell id="F8ehT1ZcIRryyy1ax7xc-115" value="出餐" style="rounded=0;whiteSpace=wrap;html=1;" parent="1" vertex="1">
          <mxGeometry x="-210" y="380" width="120" height="60" as="geometry" />
        </mxCell>
        <mxCell id="F8ehT1ZcIRryyy1ax7xc-117" value="將餐點放到&lt;div&gt;訂單的位置&lt;/div&gt;" style="rounded=0;whiteSpace=wrap;html=1;" parent="1" vertex="1">
          <mxGeometry x="-210" y="510" width="120" height="60" as="geometry" />
        </mxCell>
        <mxCell id="F8ehT1ZcIRryyy1ax7xc-121" style="edgeStyle=orthogonalEdgeStyle;rounded=0;orthogonalLoop=1;jettySize=auto;html=1;exitX=0.5;exitY=1;exitDx=0;exitDy=0;entryX=1;entryY=0.5;entryDx=0;entryDy=0;" parent="1" source="F8ehT1ZcIRryyy1ax7xc-119" target="F8ehT1ZcIRryyy1ax7xc-108" edge="1">
          <mxGeometry relative="1" as="geometry">
            <Array as="points">
              <mxPoint x="60" y="1200" />
              <mxPoint x="-1400" y="1200" />
              <mxPoint x="-1400" y="770" />
            </Array>
          </mxGeometry>
        </mxCell>
        <mxCell id="F8ehT1ZcIRryyy1ax7xc-123" value="API" style="edgeLabel;html=1;align=center;verticalAlign=middle;resizable=0;points=[];" parent="F8ehT1ZcIRryyy1ax7xc-121" vertex="1" connectable="0">
          <mxGeometry x="0.9636" relative="1" as="geometry">
            <mxPoint x="-1" as="offset" />
          </mxGeometry>
        </mxCell>
        <mxCell id="F8ehT1ZcIRryyy1ax7xc-124" style="edgeStyle=orthogonalEdgeStyle;rounded=0;orthogonalLoop=1;jettySize=auto;html=1;exitX=1;exitY=0.5;exitDx=0;exitDy=0;entryX=0;entryY=0.5;entryDx=0;entryDy=0;" parent="1" source="F8ehT1ZcIRryyy1ax7xc-119" target="F8ehT1ZcIRryyy1ax7xc-26" edge="1">
          <mxGeometry relative="1" as="geometry" />
        </mxCell>
        <mxCell id="F8ehT1ZcIRryyy1ax7xc-119" value="消訂單" style="rounded=0;whiteSpace=wrap;html=1;" parent="1" vertex="1">
          <mxGeometry y="380" width="120" height="60" as="geometry" />
        </mxCell>
        <mxCell id="F8ehT1ZcIRryyy1ax7xc-131" style="edgeStyle=orthogonalEdgeStyle;rounded=0;orthogonalLoop=1;jettySize=auto;html=1;exitX=0.5;exitY=1;exitDx=0;exitDy=0;" parent="1" source="F8ehT1ZcIRryyy1ax7xc-126" target="F8ehT1ZcIRryyy1ax7xc-127" edge="1">
          <mxGeometry relative="1" as="geometry" />
        </mxCell>
        <mxCell id="F8ehT1ZcIRryyy1ax7xc-126" value="食材輸入" style="rounded=0;whiteSpace=wrap;html=1;" parent="1" vertex="1">
          <mxGeometry x="-770" y="730" width="120" height="60" as="geometry" />
        </mxCell>
        <mxCell id="F8ehT1ZcIRryyy1ax7xc-132" style="edgeStyle=orthogonalEdgeStyle;rounded=0;orthogonalLoop=1;jettySize=auto;html=1;exitX=1;exitY=0.5;exitDx=0;exitDy=0;" parent="1" source="F8ehT1ZcIRryyy1ax7xc-127" target="F8ehT1ZcIRryyy1ax7xc-86" edge="1">
          <mxGeometry relative="1" as="geometry" />
        </mxCell>
        <mxCell id="F8ehT1ZcIRryyy1ax7xc-134" value="Y" style="edgeLabel;html=1;align=center;verticalAlign=middle;resizable=0;points=[];" parent="F8ehT1ZcIRryyy1ax7xc-132" vertex="1" connectable="0">
          <mxGeometry x="-0.1619" y="2" relative="1" as="geometry">
            <mxPoint x="-1" as="offset" />
          </mxGeometry>
        </mxCell>
        <mxCell id="F8ehT1ZcIRryyy1ax7xc-127" value="正確&lt;div&gt;食材&lt;/div&gt;" style="rhombus;whiteSpace=wrap;html=1;" parent="1" vertex="1">
          <mxGeometry x="-750" y="860" width="80" height="80" as="geometry" />
        </mxCell>
        <mxCell id="F8ehT1ZcIRryyy1ax7xc-136" style="edgeStyle=orthogonalEdgeStyle;rounded=0;orthogonalLoop=1;jettySize=auto;html=1;exitX=0.5;exitY=1;exitDx=0;exitDy=0;" parent="1" target="F8ehT1ZcIRryyy1ax7xc-138" edge="1">
          <mxGeometry relative="1" as="geometry">
            <mxPoint x="-1037" y="680" as="sourcePoint" />
          </mxGeometry>
        </mxCell>
        <mxCell id="F8ehT1ZcIRryyy1ax7xc-137" style="edgeStyle=orthogonalEdgeStyle;rounded=0;orthogonalLoop=1;jettySize=auto;html=1;exitX=0.5;exitY=1;exitDx=0;exitDy=0;" parent="1" source="F8ehT1ZcIRryyy1ax7xc-138" target="F8ehT1ZcIRryyy1ax7xc-141" edge="1">
          <mxGeometry relative="1" as="geometry" />
        </mxCell>
        <mxCell id="F8ehT1ZcIRryyy1ax7xc-138" value="食材輸入" style="rounded=0;whiteSpace=wrap;html=1;" parent="1" vertex="1">
          <mxGeometry x="-1097" y="730" width="120" height="60" as="geometry" />
        </mxCell>
        <mxCell id="F8ehT1ZcIRryyy1ax7xc-139" style="edgeStyle=orthogonalEdgeStyle;rounded=0;orthogonalLoop=1;jettySize=auto;html=1;exitX=1;exitY=0.5;exitDx=0;exitDy=0;" parent="1" source="F8ehT1ZcIRryyy1ax7xc-141" edge="1">
          <mxGeometry relative="1" as="geometry">
            <mxPoint x="-937" y="900" as="targetPoint" />
          </mxGeometry>
        </mxCell>
        <mxCell id="F8ehT1ZcIRryyy1ax7xc-140" value="Y" style="edgeLabel;html=1;align=center;verticalAlign=middle;resizable=0;points=[];" parent="F8ehT1ZcIRryyy1ax7xc-139" vertex="1" connectable="0">
          <mxGeometry x="-0.1619" y="2" relative="1" as="geometry">
            <mxPoint x="-1" as="offset" />
          </mxGeometry>
        </mxCell>
        <mxCell id="F8ehT1ZcIRryyy1ax7xc-141" value="正確&lt;div&gt;食材&lt;/div&gt;" style="rhombus;whiteSpace=wrap;html=1;" parent="1" vertex="1">
          <mxGeometry x="-1077" y="860" width="80" height="80" as="geometry" />
        </mxCell>
        <mxCell id="F8ehT1ZcIRryyy1ax7xc-144" style="edgeStyle=orthogonalEdgeStyle;rounded=0;orthogonalLoop=1;jettySize=auto;html=1;exitX=0.5;exitY=1;exitDx=0;exitDy=0;entryX=0.5;entryY=0;entryDx=0;entryDy=0;" parent="1" source="F8ehT1ZcIRryyy1ax7xc-142" target="F8ehT1ZcIRryyy1ax7xc-108" edge="1">
          <mxGeometry relative="1" as="geometry">
            <Array as="points">
              <mxPoint x="-1400" y="690" />
              <mxPoint x="-1570" y="690" />
            </Array>
          </mxGeometry>
        </mxCell>
        <mxCell id="F8ehT1ZcIRryyy1ax7xc-145" value="API" style="edgeLabel;html=1;align=center;verticalAlign=middle;resizable=0;points=[];" parent="F8ehT1ZcIRryyy1ax7xc-144" vertex="1" connectable="0">
          <mxGeometry x="0.724" y="1" relative="1" as="geometry">
            <mxPoint x="-1" y="3" as="offset" />
          </mxGeometry>
        </mxCell>
        <mxCell id="F8ehT1ZcIRryyy1ax7xc-142" value="Unity 定期&lt;div&gt;pulling&lt;/div&gt;" style="rounded=0;whiteSpace=wrap;html=1;" parent="1" vertex="1">
          <mxGeometry x="-1460" y="610" width="120" height="60" as="geometry" />
        </mxCell>
        <mxCell id="nhGvkrNBYma2P62wXq5q-1" value="玩家打開&lt;div&gt;箱子拿取食材&lt;/div&gt;" style="rounded=0;whiteSpace=wrap;html=1;" vertex="1" parent="1">
          <mxGeometry x="-1820" y="620" width="120" height="60" as="geometry" />
        </mxCell>
      </root>
    </mxGraphModel>
  </diagram>
</mxfile>
